#N canvas 827 239 734 565 12;
#X obj 604 436 r base_time @hv_param 10 2000 500;
#X text 830 435 delay time in ms;
#X obj 760 599 r base_feedback @hv_param 0 0.95 0.4;
#X text 800 549 feedback amount \, clamped at 0.95 so it never explodes into infinite feedback, f 32;
#X obj 241 491 r base_mix @hv_param 0 1 0.5;
#X text 434 490 dry/wet mix;
#X obj 604 718 delwrite~ L_delay 2000;
#X obj 604 691 +~;
#X obj 604 469 sig~;
#X obj 604 501 lop~ 20;
#X obj 604 535 vd~ L_delay;
#X obj 604 564 +~;
#X obj 604 636 *~;
#X obj 720 691 +~;
#X obj 713 564 +~;
#X obj 713 636 *~;
#X obj 485 636 adc~ 1 2;
#X obj 713 535 vd~ R_delay;
#X obj 720 747 delwrite~ R_delay 2000;
#X obj 528 1018 dac~ 1 2, f 9;
#X obj 484 829 *~;
#X obj 540 829 *~;
#X obj 637 829 *~;
#X obj 686 829 *~;
#X obj 241 546 sig~;
#X obj 241 588 lop~ 20;
#X text 376 311 Since we didn't use _adc1 or _adc2 suffixes on any knobs \, adc~ 1 and adc~ 2 are free. The generator will draw them as generic input jacks at the bottom. The same applies to dac~ 1 and dac~ 2;
#X obj 357 564 -~ 1;
#X obj 357 599 abs~;
#X obj 586 946 *~ 5;
#X obj 528 946 *~ 5;
#X text 403 563 flip from 0-1 to 1-0;
#X text 577 828 dry/wet;
#X connect 0 0 8 0;
#X connect 2 0 15 1;
#X connect 2 0 12 1;
#X connect 4 0 24 0;
#X connect 7 0 6 0;
#X connect 7 0 22 0;
#X connect 8 0 9 0;
#X connect 9 0 10 0;
#X connect 9 0 17 0;
#X connect 10 0 11 0;
#X connect 11 0 12 0;
#X connect 12 0 13 0;
#X connect 13 0 23 0;
#X connect 13 0 18 0;
#X connect 14 0 15 0;
#X connect 15 0 7 0;
#X connect 16 0 7 0;
#X connect 16 0 20 0;
#X connect 16 1 13 1;
#X connect 16 1 21 0;
#X connect 17 0 14 0;
#X connect 20 0 30 0;
#X connect 21 0 29 0;
#X connect 22 0 30 0;
#X connect 23 0 29 0;
#X connect 24 0 25 0;
#X connect 25 0 27 0;
#X connect 25 0 23 1;
#X connect 25 0 22 1;
#X connect 27 0 28 0;
#X connect 28 0 21 1;
#X connect 28 0 20 1;
#X connect 29 0 19 1;
#X connect 30 0 19 0;
