#N canvas 827 239 734 565 12;
#X obj 182 269 noise~;
#X obj 233 352 samphold~;
#X obj 301 269 sig~;
#X obj 347 478 sig~;
#X obj 347 515 lop~ 20;
#X obj 233 496 *~;
#X obj 233 532 *~ 5;
#X obj 233 584 dac~ 1;
#X obj -43 590 s sah_dac1 @hv_param;
#X obj 347 433 r atten_sah @hv_param 0 1 0.5;
#X text -99 417 Crucial: [s sah_dac1 @hv_param] is totally disconnected from the audio path! It is a 'dummy' param that tells the UI generator to position the dac~ 1 output jack at the bottom of the 'sah' column. Audio still outputs via the normal [dac~ 1] object., f 32;
#X text 544 424 The atten_ prefix creates a tiny Trim pot. Notice how all three parameters here share the core name 'sah' (button_sah_adc1;
#X obj 301 215 r button_sah_adc1 @hv_param 0 1 0;
#X text 552 206 The button_ prefix creates a gate button (sends 1 when pressed and 0 when released). Perfect for triggering S&H modules;
#X obj 368 280 sig~ 1;
#X obj 233 413 *~;
#X obj 182 352 *~;
#X obj 199 447 +~, f 9;
#X obj 368 352 -~;
#X connect 0 0 1 0;
#X connect 0 0 16 0;
#X connect 1 0 15 0;
#X connect 2 0 1 1;
#X connect 2 0 16 1;
#X connect 2 0 18 1;
#X connect 3 0 4 0;
#X connect 4 0 5 1;
#X connect 5 0 6 0;
#X connect 6 0 7 0;
#X connect 9 0 3 0;
#X connect 12 0 2 0;
#X connect 14 0 18 0;
#X connect 15 0 17 1;
#X connect 16 0 17 0;
#X connect 17 0 5 0;
#X connect 18 0 15 1;
