#N canvas 827 239 734 565 12;
#X obj 221 109 r base_pitch_adc1 @hv_param -5 5 0;
#X obj 221 169 sig~;
#X obj 221 218 lop~ 20;
#X obj 221 283 +~;
#X obj 221 336 *~ 12;
#X obj 221 378 +~ 60;
#X obj 221 454 osc~;
#X text 9 318 V/Oct Math: 1 Volt = 1 Octave. We add the knob and the input jack together \, multiply by 12 to get semitones \, and add 60 to anchor 0V to Middle C. Finally \, [mtof~] converts that MIDI note into an exact frequency for the oscillator, f 27;
#X obj 221 416 mtof~;
#X obj 221 562 hv.tanh~;
#X obj 446 351 sig~;
#X obj 446 384 lop~ 20;
#X obj 337 193 adc~ 1 2;
#X obj 389 448 +~;
#X text 337 168 V/Oct polyphonic cable on input adc~ 1 \, drive CV on input adc~ 2;
#X obj 389 336 *~;
#X obj 446 316 r base_drive_adc2 @hv_param 1 50 1;
#X obj 221 520 *~;
#X obj 221 636 dac~ 1;
#X obj 416 283 r attenv_drive @hv_param -1 1 0;
#X obj 389 253 *~ 5;
#X text 213 6 Polyphony is automatic. You only need to build a single monophonic voice in Pd. The wrapper automatically clones the patch up to 16 times in C++. A polyphonic cable in VCV Rack instantly drives multiple independent voices. Enable polyphony via the build.py prompt.;
#X text 679 315 The _adc2 suffix tells the layout script to draw the adc~ 2 input jack directly below the Drive knob., f 37;
#X text 431 223 The attenv_ prefix creates a bipolar Attenuverter (-1 to +1). This lets the user scale the CV input up \, turn it down \, or turn it left to completely invert the incoming envelope, f 50;
#X text 279 635 Unassigned dac~ 1 \, without a dummy [s name_dacN @hv_param] \, will automatically create the output jack in the bottom right corner.;
#X obj 221 599 *~ 5;
#X connect 0 0 1 0;
#X connect 1 0 2 0;
#X connect 2 0 3 0;
#X connect 3 0 4 0;
#X connect 4 0 5 0;
#X connect 5 0 8 0;
#X connect 6 0 17 0;
#X connect 8 0 6 0;
#X connect 9 0 25 0;
#X connect 10 0 11 0;
#X connect 11 0 13 1;
#X connect 12 0 3 0;
#X connect 12 1 20 0;
#X connect 13 0 17 1;
#X connect 15 0 13 0;
#X connect 16 0 10 0;
#X connect 17 0 9 0;
#X connect 19 0 15 1;
#X connect 20 0 15 0;
#X connect 25 0 18 0;
