#N canvas 827 239 734 565 12;
#X obj 191 -62 adc~ 1 2;
#X obj 270 168 r base_pitch_adc1 @hv_param 0 127 64;
#X obj 270 421 mtof~;
#X obj 270 213 sig~;
#X text 310 212 convert knob value to signal;
#X text 330 252 low-pass filter to smooth out the values;
#X obj 270 253 lop~ 20;
#X text 337 407 convert midi values (0-127) to frequency;
#X obj 191 213 *~ 12;
#X obj 270 309 +~;
#X text 10 213 scale 1V/Oct to 12 semitones;
#X obj 596 -181 r attenv_fm_adc2 @hv_param -1 1 0, f 31;
#X obj 596 -134 sig~;
#X text 636 -135 convert knob value to signal;
#X text 656 -95 low-pass filter to smooth out the values;
#X obj 596 -94 lop~ 20;
#X obj 596 3 *~;
#X obj 590 342 *~ 12;
#X text 437 -49 the FM CV input;
#X text 653 342 scale the FM depth to 1V/Oct so it matches standard VCV pitch depth;
#X obj 270 359 +~;
#X text 353 338 add the FM modulation to the main pitch;
#X obj 256 963 dac~ 1;
#X text 330 962 mono output;
#X text 191 -95 adc 1 -> v/oct input \, adc 2 FM CV input;
#X text 270 79 The 'base_' prefix generates a large main knob. The '_adc1' suffix tells the UI generator to draw the adc~ 1 input jack directly underneath this knob., f 34;
#X text 596 -269 The 'attenv_' prefix generates a small \, bipolar attenuverter knob. The '-1 1 0' sets its range. The '_adc2' suffix draws the adc~ 2 input jack directly below it., f 32;
#X text 636 2 multiply the incoming FM CV by the knob's value (-1 to 1);
#X text 250 -356 How Columns Work: The text in the middle of your parameter name is the "core name". For example \, base_pitch_adc1 creates a column named PITCH. attenv_fm_adc2 creates a column named FM. Any parameters sharing the same core name will stack vertically in that column;
#X text 191 -207 We use [adc~] to receive actual audio/CV signals. The _adcN suffix in the parameter name only tells the layout script to draw that physical jack in the same vertical column as the knob., f 35;
#X obj 256 893 *~ 5;
#X text 300 892 scales Pd's ±1.0 to VCV's ±5.0V audio standard;
#X obj 55 578 r menu @hv_param 1 4 1, f 31;
#X obj 169 491 hv.osc~ sine;
#X obj 395 495 hv.osc~ saw;
#X obj 506 495 hv.osc~ square;
#X obj 300 491 phasor~;
#X obj 300 561 abs~;
#X obj 300 635 -~ 1;
#X obj 300 595 *~ 4;
#X obj 300 527 -~ 0.5;
#X obj 211 724 == 1;
#X obj 211 761 == 2;
#X obj 211 796 == 3;
#X obj 211 840 == 4;
#X obj 290 727 *~;
#X obj 290 761 *~;
#X obj 290 796 *~;
#X obj 290 840 *~;
#X obj 413 740 +~;
#X obj 402 796 +~;
#X obj 393 840 +~;
#X text -256 490 The 'menu' prefix creates a Custom Dropdown Menu widget. Syntax: [r menu @hv_param 1 4 1] - Using 'menu' (no underscore) places the dropdown dead-center without a column. - Using 'menu_corename' groups the dropdown into a specific column. - The number of interactive labels must equal (max - min + 1). The output of the menu from vcv is the index number.;
#X connect 0 0 8 0;
#X connect 0 1 16 1;
#X connect 1 0 3 0;
#X connect 2 0 33 0;
#X connect 2 0 36 0;
#X connect 2 0 34 0;
#X connect 2 0 35 0;
#X connect 3 0 6 0;
#X connect 6 0 9 1;
#X connect 8 0 9 0;
#X connect 9 0 20 0;
#X connect 11 0 12 0;
#X connect 12 0 15 0;
#X connect 15 0 16 0;
#X connect 16 0 17 0;
#X connect 17 0 20 1;
#X connect 20 0 2 0;
#X connect 30 0 22 0;
#X connect 32 0 41 0;
#X connect 32 0 42 0;
#X connect 32 0 43 0;
#X connect 32 0 44 0;
#X connect 33 0 45 0;
#X connect 34 0 47 0;
#X connect 35 0 48 0;
#X connect 36 0 40 0;
#X connect 37 0 39 0;
#X connect 38 0 46 0;
#X connect 39 0 38 0;
#X connect 40 0 37 0;
#X connect 41 0 45 1;
#X connect 42 0 46 1;
#X connect 43 0 47 1;
#X connect 44 0 48 1;
#X connect 45 0 49 0;
#X connect 46 0 49 1;
#X connect 47 0 50 0;
#X connect 48 0 51 0;
#X connect 49 0 50 1;
#X connect 50 0 51 1;
#X connect 51 0 30 0;
